<svg width="78" height="82" viewBox="0 0 78 82" fill="none" xmlns="http://www.w3.org/2000/svg">
<path d="M25.3845 47.2103C24.8729 47.9441 24.2624 48.7082 23.5508 49.4943C21.0395 52.2684 17.9596 54.5508 15.9718 55.7441L15.6374 55.9449C14.3014 56.747 13.4768 58.2398 13.4768 59.8565V70.7196C13.4768 73.2077 15.3967 75.2247 17.765 75.2247H59.5746C61.9429 75.2247 63.8627 73.2077 63.8627 70.7196V59.8565C63.8627 58.2398 63.0382 56.747 61.7021 55.9449L61.3677 55.7441C59.38 54.5508 56.3 52.2684 53.7887 49.4943C53.0771 48.7082 52.4667 47.9441 51.9551 47.2103C53.837 46.7341 55.2354 44.9537 55.2354 42.8303V35.4967C55.2354 34.0329 54.5584 32.6603 53.4201 31.8161L51.5988 30.4654C52.6497 28.3202 53.2444 25.8859 53.2444 23.3078C53.2444 14.6585 46.5706 7.64691 38.3379 7.64691C30.1053 7.64691 23.4315 14.6585 23.4315 23.3078C23.4315 26.0309 24.0947 28.5929 25.258 30.8234L23.9194 31.8161C22.7811 32.6603 22.1042 34.0329 22.1042 35.4967V42.8303C22.1042 44.9537 23.5025 46.7341 25.3845 47.2103Z" fill="#F4F7FA"/>
<path d="M48.9562 23.3078C48.9562 26.5433 47.6452 29.457 45.5508 31.4947L50.9472 35.4967V42.8303H45.6643C45.9191 46.2296 47.9951 49.6316 50.6815 52.5991C53.5323 55.7483 56.9623 58.2882 59.2402 59.6557L59.5745 59.8565V70.7196H17.765V59.8565L18.0993 59.6557C20.3772 58.2882 23.8072 55.7483 26.6581 52.5991C29.3444 49.6316 31.4204 46.2296 31.6752 42.8303H26.3923V35.4967L31.4181 31.7695C29.1537 29.7237 27.7196 26.6917 27.7196 23.3078C27.7196 17.1467 32.4736 12.1521 38.3379 12.1521C44.2023 12.1521 48.9562 17.1467 48.9562 23.3078Z" fill="#34364C"/>
</svg>
