<svg width="78" height="82" viewBox="0 0 78 82" fill="none" xmlns="http://www.w3.org/2000/svg">
<path d="M19.909 11.7786C19.909 12.8906 20.0793 13.9605 20.3939 14.9613L18.2773 16.0045C16.5225 14.0935 14.0597 12.9049 11.3327 12.9049C6.00405 12.9049 1.68433 17.4432 1.68433 23.0415C1.68433 28.0319 5.11678 32.18 9.63663 33.0221L14.7203 51.3341C14.8265 51.7164 14.9803 52.0821 15.178 52.4219L18.108 57.4591L18.09 57.4625C16.0417 57.8432 14.5488 59.7134 14.5488 61.8988V70.346C14.5488 72.8341 16.4687 74.8512 18.837 74.8512L59.657 74.8512C60.7943 74.8512 61.885 74.3765 62.6892 73.5317C63.4934 72.6868 63.9452 71.5409 63.9452 70.346V61.8988C63.9452 59.7109 62.449 57.8393 60.3978 57.4613L60.3115 57.4454L63.2335 52.4219C63.4312 52.0821 63.5851 51.7164 63.6912 51.3341L68.7749 33.0221C73.2947 32.18 76.7272 28.0319 76.7272 23.0415C76.7272 17.4432 72.4075 12.9049 67.0788 12.9049C64.3484 12.9049 61.8828 14.0965 60.1276 16.0117L58.0147 14.9704C58.3312 13.967 58.5025 12.894 58.5025 11.7786C58.5025 6.18022 54.1828 1.64188 48.8541 1.64188C43.5255 1.64188 39.2058 6.18022 39.2058 11.7786C39.2058 6.18022 34.886 1.64188 29.5574 1.64188C24.2287 1.64188 19.909 6.18022 19.909 11.7786Z" fill="#F4F7FA"/>
<path d="M31.4815 17.0363C33.4914 16.224 34.9176 14.1763 34.9176 11.7786C34.9176 8.66837 32.5178 6.14706 29.5574 6.14706C26.5971 6.14706 24.1972 8.66837 24.1972 11.7786C24.1972 14.6527 26.2466 17.0239 28.8939 17.3673L26.5035 37.6834L14.98 27.1683C16.0337 26.14 16.6929 24.6716 16.6929 23.0415C16.6929 19.9314 14.2931 17.41 11.3327 17.41C8.37238 17.41 5.97253 19.9314 5.97253 23.0415C5.97253 26.1517 8.37238 28.673 11.3327 28.673C11.8539 28.673 12.3576 28.5949 12.834 28.4492L18.837 50.0727L25.0448 60.745L18.837 61.8988V70.346L59.657 70.346V61.8988L53.3696 60.7402L59.5746 50.0727L65.5776 28.4492C66.054 28.5949 66.5577 28.673 67.0789 28.673C70.0392 28.673 72.4391 26.1517 72.4391 23.0415C72.4391 19.9314 70.0392 17.41 67.0789 17.41C64.1185 17.41 61.7187 19.9314 61.7187 23.0415C61.7187 24.6716 62.3779 26.14 63.4316 27.1683L51.9081 37.6834L49.5177 17.3673C52.165 17.0239 54.2144 14.6527 54.2144 11.7786C54.2144 8.66837 51.8145 6.14706 48.8542 6.14706C45.8938 6.14706 43.494 8.66837 43.494 11.7786C43.494 14.1763 44.9203 16.224 46.9301 17.0363L39.2058 35.4308L31.4815 17.0363Z" fill="#34364C"/>
</svg>
