<svg width="78" height="82" viewBox="0 0 78 82" fill="none" xmlns="http://www.w3.org/2000/svg">
<g clip-path="url(#clip0_503_381)">
<path fill-rule="evenodd" clip-rule="evenodd" d="M32.6915 4.88003C32.7639 2.44786 34.6614 0.515564 36.9776 0.515564H43.4098C45.726 0.515564 47.6236 2.44786 47.6959 4.88003L47.7336 6.14705H49.8421C52.2104 6.14705 54.1302 8.16409 54.1302 10.6522V13.3847C58.8045 12.2734 63.8497 13.0157 68.1319 16.7648C77.0279 24.5533 76.2093 40.8799 65.6517 49.8101C63.1038 51.9651 61.1023 53.7517 59.724 55.5926C59.4095 56.0126 59.1401 56.4189 58.9134 56.8167L63.2593 57.4342C65.3861 57.7364 66.9727 59.644 66.9727 61.8988V70.346C66.9727 72.8341 65.0528 74.8512 62.6845 74.8512H17.7029C15.3346 74.8512 13.4147 72.8341 13.4147 70.346V61.8988C13.4147 59.644 15.0013 57.7364 17.1281 57.4342L21.4741 56.8167C21.2473 56.4189 20.9779 56.0126 20.6634 55.5926C19.2851 53.7517 17.2836 51.9651 14.7358 49.8101C4.17808 40.8799 3.35954 24.5533 12.2555 16.7648C16.5377 13.0157 21.5829 12.2734 26.2572 13.3847V10.6522C26.2572 8.16409 28.177 6.14705 30.5453 6.14705H32.6538L32.6915 4.88003Z" fill="#F4F7FA"/>
<path fill-rule="evenodd" clip-rule="evenodd" d="M36.9776 5.02075H43.4099L43.5774 10.6522H49.8421V17.41H43.7784L44.0729 25.0609C44.1905 24.9155 44.3115 24.7728 44.4363 24.6335C50.293 18.0938 58.9766 14.6137 65.3867 20.2258C71.8189 25.8572 71.8189 38.8097 62.9625 46.3008C57.9456 50.5444 53.452 54.6352 53.6734 60.6183L62.6846 61.8988V70.346H17.7029V61.8988L26.714 60.6183C26.9355 54.6352 22.4418 50.5443 17.425 46.3008C8.56853 38.8097 8.56853 25.8572 15.0008 20.2258C21.4109 14.6137 30.0945 18.0938 35.9512 24.6335C36.0759 24.7728 36.197 24.9155 36.3145 25.0609L36.6091 17.41H30.5454V10.6522H36.8101L36.9776 5.02075ZM30.9185 30.8953C34.8493 37.6599 35.3695 45.5674 35.3695 49.0063C33.3993 49.01 25.9719 45.577 22.0394 39.9412C19.2083 35.8838 18.4701 29.864 20.897 27.527C23.3239 25.19 28.4617 26.6675 30.9185 30.8953ZM49.469 30.8953C45.5382 37.6599 45.0179 45.5674 45.0179 49.0063C46.9882 49.01 54.4156 45.577 58.3481 39.9412C61.1791 35.8838 61.9173 29.864 59.4905 27.527C57.0636 25.19 51.9258 26.6675 49.469 30.8953Z" fill="#34364D"/>
</g>
<defs>
<clipPath id="clip0_503_381">
<rect width="77.187" height="81.0934" fill="white" transform="translate(0.528198 0.515564)"/>
</clipPath>
</defs>
</svg>
