<svg width="78" height="82" viewBox="0 0 78 82" fill="none" xmlns="http://www.w3.org/2000/svg">
<path d="M28.6539 19.5318C28.2229 18.2882 27.9873 16.9458 27.9873 15.5473C27.9873 9.11161 32.9532 3.89447 39.0788 3.89447C45.2045 3.89447 50.1703 9.11161 50.1703 15.5473C50.1703 17.4325 49.7415 19.2195 48.9813 20.7996C50.0752 20.8791 51.1382 21.3969 51.9132 22.3274C56.1237 27.383 59.8084 34.5914 59.8084 42.9467C59.8084 48.92 57.851 53.3464 55.206 56.5357L60.2296 57.4613C62.2808 57.8393 63.777 59.7109 63.777 61.8988V70.346C63.777 71.5409 63.3252 72.6868 62.521 73.5317C61.7169 74.3765 60.6261 74.8512 59.4889 74.8512L18.6688 74.8512C16.3006 74.8512 14.3807 72.8341 14.3807 70.346V61.8988C14.3807 59.7134 15.8735 57.8432 17.9218 57.4625L22.4534 56.6202C19.7724 53.4249 17.7823 48.9738 17.7823 42.9467C17.7823 36.428 20.1868 30.7509 23.007 26.4002C24.7796 23.6655 26.7864 21.3439 28.6539 19.5318Z" fill="#F4F7FA"/>
<path d="M41.1817 42.351H36.8935C36.8935 34.0786 39.2817 25.82 44.5652 19.7749C45.3931 18.5909 45.8822 17.1291 45.8822 15.5473C45.8822 11.5998 42.8362 8.39966 39.0788 8.39966C35.3214 8.39966 32.2755 11.5998 32.2755 15.5473C32.2755 17.4949 33.017 19.2606 34.2195 20.5498C29.9697 23.7328 22.0705 32.2646 22.0705 42.9467C22.0705 53.7267 30.1152 58.091 34.3355 58.987L18.6688 61.8988V70.346L59.4888 70.346V61.8988L43.4507 58.9436C47.7187 57.9566 55.5202 53.5625 55.5202 42.9467C55.5202 35.9956 52.4381 29.7993 48.686 25.2941C44.5652 28.673 41.1817 36.5571 41.1817 42.351Z" fill="#34364C"/>
</svg>
