<svg width="78" height="82" viewBox="0 0 78 82" fill="none" xmlns="http://www.w3.org/2000/svg">
<path d="M28.1491 6.14706C28.9301 6.14706 29.6624 6.36645 30.2932 6.74978C30.9239 6.36645 31.6562 6.14706 32.4372 6.14706H44.2297C45.0108 6.14706 45.743 6.36645 46.3738 6.74978C47.0045 6.36645 47.7368 6.14706 48.5179 6.14706H59.2383C61.6065 6.14706 63.5264 8.16411 63.5264 10.6523V20.7889C63.5264 22.207 62.8909 23.5423 61.8112 24.3931L55.1944 29.6068L57.068 47.3225C57.564 52.0128 59.6419 54.3924 62.6688 58.6325C63.2255 59.4123 63.5264 60.3608 63.5264 61.3356V70.346C63.5264 72.8341 61.6066 74.8512 59.2383 74.8512H17.4287C15.0604 74.8512 13.1405 72.8341 13.1405 70.346V61.3356C13.1405 60.3608 13.4414 59.4123 13.9981 58.6325C17.0251 54.3924 19.1029 52.0128 19.599 47.3225L21.4726 29.6068L14.8558 24.3931C13.776 23.5423 13.1405 22.207 13.1405 20.7889V10.6523C13.1405 8.16411 15.0604 6.14706 17.4287 6.14706H28.1491Z" fill="#F4F7FA"/>
<path d="M17.4287 10.6523H28.1491V17.41H32.4373V10.6523H44.2297V17.41H48.5179V10.6523H59.2383V20.7889L50.662 27.5467L52.8061 47.8201H23.861L26.005 27.5467L17.4287 20.7889V10.6523Z" fill="#34364C"/>
<path d="M23.861 52.3252H52.8061L59.2383 61.3356V70.346H17.4287V61.3356L23.861 52.3252Z" fill="#34364C"/>
</svg>
