<svg width="78" height="82" viewBox="0 0 78 82" fill="none" xmlns="http://www.w3.org/2000/svg">
<path d="M32.1888 1.08655C33.6003 0.919796 34.9989 1.4982 35.9234 2.63112L44.6723 13.3517C54.7194 15.9602 60.5407 23.9086 63.7604 33.831C67.078 44.0553 67.8986 57.0354 67.8986 70.3459C67.8986 72.8341 65.9788 74.8511 63.6105 74.8511H23.6286C21.3521 74.8511 19.4723 72.9822 19.347 70.594C19.2351 68.4629 19.7018 64.7651 21.124 60.988L21.1501 60.9189C17.1115 63.1964 12.6294 62.6509 9.30209 60.162C5.2585 57.1373 3.01016 51.2163 5.57892 45.369C7.43128 41.1524 9.42773 38.9195 10.938 37.2308C12.3488 35.6535 12.9367 34.9597 13.3526 33.2118C15.8743 22.6145 21.0622 16.5097 26.6335 13.7237C26.5529 12.5165 26.6184 11.3533 26.7594 10.2973C27.1102 7.66875 27.9836 5.23967 28.874 3.46392C29.5359 2.14358 30.7773 1.2533 32.1888 1.08655Z" fill="#F4F7FA"/>
<path fill-rule="evenodd" clip-rule="evenodd" d="M42.3527 17.4309L32.668 5.56354C31.2662 8.35968 29.9071 13.2947 31.861 16.8572C30.9127 16.9459 30.0063 17.1145 29.3052 17.41C24.8325 19.2958 19.9249 24.1678 17.5128 34.3045C16.8143 37.2397 15.5573 38.6453 14.0632 40.3158C12.6538 41.8917 11.0336 43.7033 9.47248 47.2569C6.25636 54.5778 14.9359 61.8988 21.2649 55.2495C24.8232 51.5112 27.9334 49.9679 30.5447 48.6722C34.3031 46.8073 37.0279 45.4553 38.567 38.8097C39.2992 41.9096 39.0063 49.2253 31.9766 53.6892C24.9468 58.153 23.4822 67.5561 23.6287 70.346H63.6106C63.6106 43.8591 60.2727 20.9745 42.3527 17.4309Z" fill="#34364C"/>
<ellipse cx="30.3773" cy="30.9256" rx="3.21612" ry="3.37889" fill="#F4F7FA"/>
</svg>
