<svg width="78" height="82" viewBox="0 0 78 82" fill="none" xmlns="http://www.w3.org/2000/svg">
<path d="M28.6539 19.4035C28.2229 18.1598 27.9873 16.8174 27.9873 15.419C27.9873 8.98325 32.9532 3.76611 39.0788 3.76611C45.2045 3.76611 50.1703 8.98325 50.1703 15.419C50.1703 17.3041 49.7415 19.0911 48.9813 20.6713C50.0752 20.7508 51.1382 21.2686 51.9132 22.1991C56.1237 27.2547 59.8084 34.4631 59.8084 42.8183C59.8084 48.7917 57.851 53.218 55.206 56.4073L60.2296 57.333C62.2808 57.7109 63.777 59.5825 63.777 61.7704V70.2177C63.777 71.4125 63.3252 72.5584 62.521 73.4033C61.7169 74.2482 60.6261 74.7228 59.4889 74.7228L18.6688 74.7228C16.3006 74.7228 14.3807 72.7058 14.3807 70.2176V61.7704C14.3807 59.585 15.8735 57.7148 17.9218 57.3341L22.4534 56.4919C19.7724 53.2966 17.7823 48.8454 17.7823 42.8183C17.7823 36.2996 20.1868 30.6225 23.007 26.2718C24.7796 23.5372 26.7864 21.2155 28.6539 19.4035Z" fill="#34364C"/>
<path d="M41.1817 42.2227H36.8935C36.8935 33.9502 39.2817 25.6916 44.5652 19.6465C45.3931 18.4625 45.8822 17.0008 45.8822 15.419C45.8822 11.4714 42.8362 8.2713 39.0788 8.2713C35.3214 8.2713 32.2755 11.4714 32.2755 15.419C32.2755 17.3666 33.017 19.1322 34.2195 20.4214C29.9697 23.6044 22.0705 32.1363 22.0705 42.8183C22.0705 53.5984 30.1152 57.9626 34.3355 58.8586L18.6688 61.7704V70.2176L59.4888 70.2177V61.7704L43.4507 58.8152C47.7187 57.8282 55.5202 53.4342 55.5202 42.8183C55.5202 35.8673 52.4381 29.6709 48.686 25.1658C44.5652 28.5446 41.1817 36.4287 41.1817 42.2227Z" fill="#F4F7FA"/>
</svg>
