<svg width="78" height="82" viewBox="0 0 78 82" fill="none" xmlns="http://www.w3.org/2000/svg">
<path d="M19.909 11.6502C19.909 12.7622 20.0793 13.8322 20.3939 14.8329L18.2773 15.8761C16.5225 13.9651 14.0597 12.7765 11.3327 12.7765C6.00405 12.7765 1.68433 17.3148 1.68433 22.9132C1.68433 27.9036 5.11678 32.0517 9.63663 32.8937L14.7203 51.2058C14.8265 51.588 14.9803 51.9538 15.178 52.2935L18.108 57.3308L18.09 57.3341C16.0417 57.7148 14.5488 59.585 14.5488 61.7704V70.2176C14.5488 72.7058 16.4687 74.7228 18.837 74.7228L59.657 74.7228C60.7943 74.7228 61.885 74.2482 62.6892 73.4033C63.4934 72.5584 63.9452 71.4125 63.9452 70.2176V61.7704C63.9452 59.5825 62.449 57.7109 60.3978 57.3329L60.3115 57.3171L63.2335 52.2935C63.4312 51.9538 63.5851 51.588 63.6912 51.2058L68.7749 32.8937C73.2947 32.0517 76.7272 27.9036 76.7272 22.9132C76.7272 17.3148 72.4075 12.7765 67.0788 12.7765C64.3484 12.7765 61.8828 13.9681 60.1276 15.8833L58.0147 14.842C58.3312 13.8386 58.5025 12.7656 58.5025 11.6502C58.5025 6.05186 54.1828 1.51352 48.8541 1.51352C43.5255 1.51352 39.2058 6.05186 39.2058 11.6502C39.2058 6.05186 34.886 1.51352 29.5574 1.51352C24.2287 1.51352 19.909 6.05186 19.909 11.6502Z" fill="#34364C"/>
<path d="M31.4815 16.908C33.4914 16.0956 34.9176 14.0479 34.9176 11.6502C34.9176 8.54001 32.5178 6.01871 29.5574 6.01871C26.5971 6.01871 24.1972 8.54001 24.1972 11.6502C24.1972 14.5243 26.2466 16.8956 28.8939 17.239L26.5035 37.555L14.98 27.04C16.0337 26.0116 16.6929 24.5433 16.6929 22.9132C16.6929 19.803 14.2931 17.2817 11.3327 17.2817C8.37238 17.2817 5.97253 19.803 5.97253 22.9132C5.97253 26.0234 8.37238 28.5447 11.3327 28.5447C11.8539 28.5447 12.3576 28.4665 12.834 28.3208L18.837 49.9443L25.0448 60.6166L18.837 61.7704V70.2176L59.657 70.2177V61.7704L53.3696 60.6119L59.5746 49.9443L65.5776 28.3208C66.054 28.4665 66.5577 28.5447 67.0789 28.5447C70.0392 28.5447 72.4391 26.0234 72.4391 22.9132C72.4391 19.803 70.0392 17.2817 67.0789 17.2817C64.1185 17.2817 61.7187 19.803 61.7187 22.9132C61.7187 24.5433 62.3779 26.0116 63.4316 27.04L51.9081 37.555L49.5177 17.239C52.165 16.8956 54.2144 14.5243 54.2144 11.6502C54.2144 8.54001 51.8145 6.01871 48.8542 6.01871C45.8938 6.01871 43.494 8.54001 43.494 11.6502C43.494 14.0479 44.9203 16.0956 46.9301 16.908L39.2058 35.3024L31.4815 16.908Z" fill="#F4F7FA"/>
</svg>
