<svg width="78" height="82" viewBox="0 0 78 82" fill="none" xmlns="http://www.w3.org/2000/svg">
<g clip-path="url(#clip0_503_364)">
<path fill-rule="evenodd" clip-rule="evenodd" d="M32.6915 4.75168C32.7639 2.3195 34.6614 0.387207 36.9776 0.387207H43.4098C45.726 0.387207 47.6236 2.3195 47.6959 4.75168L47.7336 6.01869H49.8421C52.2104 6.01869 54.1302 8.03573 54.1302 10.5239V13.2563C58.8045 12.145 63.8497 12.8874 68.1319 16.6364C77.0279 24.4249 76.2093 40.7515 65.6517 49.6817C63.1038 51.8368 61.1023 53.6234 59.724 55.4642C59.4095 55.8842 59.1401 56.2906 58.9134 56.6883L63.2593 57.3059C65.3861 57.6081 66.9727 59.5156 66.9727 61.7704V70.2176C66.9727 72.7058 65.0528 74.7228 62.6845 74.7228H17.7029C15.3346 74.7228 13.4147 72.7058 13.4147 70.2176V61.7704C13.4147 59.5156 15.0013 57.6081 17.1281 57.3059L21.4741 56.6883C21.2473 56.2906 20.9779 55.8842 20.6634 55.4642C19.2851 53.6234 17.2836 51.8367 14.7358 49.6817C4.17808 40.7515 3.35954 24.4249 12.2555 16.6364C16.5377 12.8874 21.5829 12.145 26.2572 13.2563V10.5239C26.2572 8.03573 28.177 6.01869 30.5453 6.01869H32.6538L32.6915 4.75168Z" fill="#34364C"/>
<path fill-rule="evenodd" clip-rule="evenodd" d="M36.9776 4.8924H43.4099L43.5774 10.5239H49.8421V17.2817H43.7784L44.073 24.9326C44.1905 24.7871 44.3115 24.6445 44.4363 24.5052C50.293 17.9654 58.9766 14.4853 65.3867 20.0974C71.819 25.7289 71.819 38.6813 62.9625 46.1725C57.9457 50.416 53.452 54.5068 53.6734 60.49L62.6846 61.7704V70.2176H17.7029V61.7704L26.714 60.49C26.9355 54.5068 22.4418 50.416 17.425 46.1725C8.56852 38.6813 8.56852 25.7289 15.0008 20.0974C21.4109 14.4853 30.0945 17.9654 35.9512 24.5052C36.0759 24.6445 36.197 24.7871 36.3145 24.9326L36.6091 17.2817H30.5454V10.5239H36.8101L36.9776 4.8924ZM30.9185 30.767C34.8493 37.5315 35.3696 45.4391 35.3696 48.8779C33.3993 48.8816 25.9719 45.4486 22.0394 39.8128C19.2083 35.7554 18.4701 29.7357 20.897 27.3986C23.3239 25.0616 28.4617 26.5392 30.9185 30.767ZM49.469 30.767C45.5382 37.5315 45.0179 45.4391 45.0179 48.8779C46.9882 48.8816 54.4156 45.4486 58.3481 39.8128C61.1792 35.7554 61.9174 29.7357 59.4905 27.3986C57.0636 25.0616 51.9258 26.5392 49.469 30.767Z" fill="#F4F7FA"/>
</g>
<defs>
<clipPath id="clip0_503_364">
<rect width="77.187" height="81.0934" fill="white" transform="translate(0.528198 0.387207)"/>
</clipPath>
</defs>
</svg>
