<svg width="78" height="82" viewBox="0 0 78 82" fill="none" xmlns="http://www.w3.org/2000/svg">
<path d="M32.1888 0.958192C33.6003 0.791439 34.9989 1.36985 35.9234 2.50276L44.6723 13.2234C54.7194 15.8319 60.5407 23.7802 63.7604 33.7027C67.078 43.927 67.8986 56.907 67.8986 70.2176C67.8986 72.7057 65.9788 74.7228 63.6105 74.7228H23.6286C21.3521 74.7228 19.4723 72.8538 19.347 70.4657C19.2351 68.3345 19.7018 64.6367 21.124 60.8597L21.1501 60.7905C17.1115 63.0681 12.6294 62.5225 9.30209 60.0337C5.2585 57.009 3.01016 51.0879 5.57892 45.2406C7.43128 41.024 9.42773 38.7912 10.938 37.1025C12.3488 35.5251 12.9367 34.8313 13.3526 33.0834C15.8743 22.4861 21.0622 16.3814 26.6335 13.5954C26.5529 12.3881 26.6184 11.225 26.7594 10.169C27.1102 7.5404 27.9836 5.11132 28.874 3.33556C29.5359 2.01522 30.7773 1.12495 32.1888 0.958192Z" fill="#34364C"/>
<path fill-rule="evenodd" clip-rule="evenodd" d="M42.3527 17.3025L32.668 5.43518C31.2662 8.23132 29.9071 13.1663 31.861 16.7288C30.9127 16.8176 30.0063 16.9861 29.3052 17.2817C24.8325 19.1674 19.9249 24.0395 17.5128 34.1761C16.8143 37.1113 15.5573 38.5169 14.0632 40.1875C12.6538 41.7633 11.0336 43.5749 9.47248 47.1286C6.25636 54.4495 14.9359 61.7704 21.2649 55.1211C24.8232 51.3828 27.9334 49.8395 30.5447 48.5438C34.3031 46.679 37.0279 45.327 38.567 38.6813C39.2992 41.7812 39.0063 49.097 31.9766 53.5608C24.9468 58.0247 23.4822 67.4277 23.6287 70.2176H63.6106C63.6106 43.7308 60.2727 20.8462 42.3527 17.3025Z" fill="#F4F7FA"/>
<ellipse cx="30.3773" cy="30.7972" rx="3.21612" ry="3.37889" fill="#34364C"/>
</svg>
