<svg width="78" height="82" viewBox="0 0 78 82" fill="none" xmlns="http://www.w3.org/2000/svg">
<path d="M28.1491 6.01871C28.9301 6.01871 29.6624 6.2381 30.2932 6.62142C30.9239 6.2381 31.6562 6.01871 32.4372 6.01871H44.2297C45.0108 6.01871 45.743 6.2381 46.3738 6.62142C47.0045 6.2381 47.7368 6.01871 48.5179 6.01871H59.2383C61.6065 6.01871 63.5264 8.03575 63.5264 10.5239V20.6606C63.5264 22.0786 62.8909 23.4139 61.8112 24.2647L55.1944 29.4785L57.068 47.1942C57.564 51.8844 59.6419 54.264 62.6688 58.5042C63.2255 59.284 63.5264 60.2325 63.5264 61.2073V70.2176C63.5264 72.7058 61.6066 74.7228 59.2383 74.7228H17.4287C15.0604 74.7228 13.1405 72.7058 13.1405 70.2176V61.2073C13.1405 60.2325 13.4414 59.284 13.9981 58.5042C17.0251 54.264 19.1029 51.8844 19.599 47.1942L21.4726 29.4785L14.8558 24.2647C13.776 23.4139 13.1405 22.0786 13.1405 20.6606V10.5239C13.1405 8.03575 15.0604 6.01871 17.4287 6.01871H28.1491Z" fill="#34364C"/>
<path d="M17.4287 10.5239H28.1491V17.2817H32.4373V10.5239H44.2297V17.2817H48.5179V10.5239H59.2383V20.6606L50.662 27.4184L52.8061 47.6917H23.861L26.005 27.4184L17.4287 20.6606V10.5239Z" fill="#F4F7FA"/>
<path d="M23.861 52.1969H52.8061L59.2383 61.2073V70.2176H17.4287V61.2073L23.861 52.1969Z" fill="#F4F7FA"/>
</svg>
