<svg width="78" height="82" viewBox="0 0 78 82" fill="none" xmlns="http://www.w3.org/2000/svg">
<path d="M25.0482 46.5839C24.5366 47.3176 23.9261 48.0818 23.2145 48.8678C20.7032 51.6419 17.6233 53.9243 15.6355 55.1177L15.3011 55.3184C13.9651 56.1206 13.1405 57.6133 13.1405 59.23V70.0931C13.1405 72.5813 15.0604 74.5983 17.4287 74.5983H59.2383C61.6066 74.5983 63.5264 72.5813 63.5264 70.0931V59.23C63.5264 57.6133 62.7019 56.1206 61.3658 55.3184L61.0314 55.1177C59.0436 53.9243 55.9637 51.6419 53.4524 48.8678C52.7408 48.0818 52.1304 47.3176 51.6187 46.5839C53.5007 46.1076 54.899 44.3273 54.899 42.2039V34.8703C54.899 33.4064 54.2221 32.0338 53.0838 31.1897L51.2625 29.839C52.3134 27.6938 52.9081 25.2595 52.9081 22.6814C52.9081 14.0321 46.2343 7.02048 38.0016 7.02048C29.769 7.02048 23.0952 14.0321 23.0952 22.6814C23.0952 25.4045 23.7584 27.9665 24.9217 30.197L23.5831 31.1897C22.4448 32.0338 21.7679 33.4064 21.7679 34.8703V42.2039C21.7679 44.3273 23.1662 46.1076 25.0482 46.5839Z" fill="#34364C"/>
<path d="M48.62 22.6814C48.62 25.9168 47.309 28.8306 45.2146 30.8683L50.6109 34.8703V42.2039H45.3281C45.5829 45.6032 47.6589 49.0052 50.3452 51.9727C53.1961 55.1219 56.6261 57.6618 58.9039 59.0293L59.2383 59.23V70.0931H17.4287V59.23L17.7631 59.0293C20.041 57.6618 23.4709 55.1219 26.3218 51.9727C29.0082 49.0052 31.0842 45.6032 31.3389 42.2039H26.0561V34.8703L31.0819 31.1431C28.8174 29.0972 27.3834 26.0652 27.3834 22.6814C27.3834 16.5202 32.1374 11.5257 38.0017 11.5257C43.866 11.5257 48.62 16.5202 48.62 22.6814Z" fill="#F4F7FA"/>
</svg>
